<?xml version="1.0" standalone="no"?>
<!DOCTYPE svg PUBLIC "-//W3C//DTD SVG 20010904//EN"
 "http://www.w3.org/TR/2001/REC-SVG-20010904/DTD/svg10.dtd">
<svg version="1.0" xmlns="http://www.w3.org/2000/svg"
 width="233.000000pt" height="227.000000pt" viewBox="0 0 233.000000 227.000000"
 preserveAspectRatio="xMidYMid meet">

<g transform="translate(0.000000,227.000000) scale(0.100000,-0.100000)"
fill="#10b981" stroke="none">
<path d="M600 2121 c0 -29 100 -105 116 -88 6 6 -95 97 -107 97 -5 0 -9 -4 -9
-9z"/>
<path d="M1516 2020 c-80 -24 -116 -112 -81 -197 19 -46 19 -53 -2 -53 -25 0
-135 -53 -151 -73 -12 -13 -4 -16 65 -23 118 -13 272 -7 344 11 88 23 171 69
221 123 l42 45 -52 48 c-115 106 -270 153 -386 119z"/>
<path d="M790 1961 c-12 -8 -3 -21 45 -66 46 -43 54 -55 35 -49 -45 12 -79 34
-97 60 -16 25 -17 25 -30 8 -28 -39 -3 -117 45 -135 38 -15 88 -2 112 28 28
35 27 94 -2 128 -25 28 -83 42 -108 26z"/>
<path d="M1925 1769 c-107 -109 -285 -154 -524 -130 -127 13 -144 8 -156 -50
-19 -86 45 -148 265 -256 197 -96 300 -164 395 -258 95 -96 128 -162 123 -249
-3 -75 -16 -67 127 -86 44 -6 90 -13 102 -15 54 -12 58 155 6 247 -46 82 -108
125 -273 192 -391 158 -495 259 -342 332 44 21 69 26 107 24 141 -9 215 9 260
61 31 38 34 114 6 174 -31 69 -40 71 -96 14z"/>
<path d="M1077 1666 c-37 -18 -65 -35 -61 -39 6 -6 57 17 117 53 48 29 21 23
-56 -14z"/>
<path d="M768 1512 c-442 -227 -615 -359 -705 -539 -47 -94 -50 -170 -10 -256
14 -31 34 -60 43 -64 9 -3 91 5 182 20 l166 26 57 -54 c53 -49 184 -125 214
-125 13 0 29 -29 22 -37 -6 -6 -107 35 -147 60 -19 12 -59 44 -88 71 l-53 50
-127 -19 c-70 -10 -149 -21 -177 -24 l-50 -6 30 -29 c113 -108 320 -188 568
-221 l47 -6 0 -52 c0 -83 -7 -97 -46 -97 -37 0 -54 21 -54 65 0 32 -41 75 -73
75 -41 0 -62 -34 -62 -102 0 -59 1 -61 48 -104 90 -81 197 -86 239 -11 7 12
15 66 18 120 l5 98 200 3 c216 4 413 22 650 62 254 42 388 84 477 149 54 40
105 102 92 114 -5 4 -49 14 -99 20 -49 7 -104 15 -122 18 -25 4 -32 1 -37 -14
-11 -35 -97 -111 -165 -147 -81 -42 -167 -71 -274 -93 -140 -29 -568 -21 -704
14 -22 5 -23 9 -23 114 l0 109 -35 0 -35 0 0 -85 c0 -47 -3 -85 -6 -85 -3 0
-38 17 -78 37 -207 108 -312 324 -246 506 48 131 137 234 317 370 9 7 12 -72
13 -349 0 -197 2 -359 4 -361 1 -2 17 0 35 3 l32 7 -2 376 -3 376 75 47 c41
27 79 50 84 52 6 2 7 6 3 10 -3 4 -93 -37 -200 -92z"/>
</g>
</svg>
