<?xml version="1.0" standalone="no"?>
<!DOCTYPE svg PUBLIC "-//W3C//DTD SVG 20010904//EN"
 "http://www.w3.org/TR/2001/REC-SVG-20010904/DTD/svg10.dtd">
<svg version="1.0" xmlns="http://www.w3.org/2000/svg"
 width="515.000000pt" height="538.000000pt" viewBox="0 0 515.000000 538.000000"
 preserveAspectRatio="xMidYMid meet">
<metadata>
Created by potrace 1.16, written by Peter Selinger 2001-2019
</metadata>
<g transform="translate(0.000000,538.000000) scale(0.100000,-0.100000)"
fill="#34d399" stroke="none">
<path d="M0 2690 l0 -2690 2575 0 2575 0 0 2690 0 2690 -2575 0 -2575 0 0
-2690z m2707 2350 c146 -84 187 -266 85 -373 -54 -57 -109 -81 -187 -81 -92
-1 -129 22 -191 120 -55 88 -58 130 -15 220 62 130 194 179 308 114z m-500
-217 c1 -23 7 -61 12 -85 6 -24 7 -46 3 -49 -4 -4 -38 -12 -77 -19 -142 -23
-373 -104 -545 -190 -78 -38 -143 -70 -145 -70 -2 0 -16 21 -31 48 -15 26 -34
55 -42 65 -19 22 -17 24 90 80 163 86 339 154 603 232 50 15 95 28 100 30 22
7 29 -3 32 -42z m962 21 c144 -31 181 -43 353 -110 132 -51 275 -119 311 -147
21 -18 22 -40 1 -58 -9 -8 -25 -33 -35 -56 -10 -24 -21 -43 -25 -43 -4 0 -69
31 -144 70 -178 90 -308 135 -532 186 -72 16 -83 23 -79 48 1 4 2 37 3 72 1
49 4 64 16 64 8 0 67 -12 131 -26z m-805 -314 c44 -26 58 -57 54 -115 -3 -49
-4 -49 -43 -58 -468 -101 -677 -205 -980 -484 -231 -214 -361 -408 -472 -708
-25 -68 -69 -225 -92 -327 -13 -54 -24 -98 -26 -98 -1 0 -20 22 -40 49 -21 27
-53 57 -71 67 -19 10 -36 24 -38 31 -7 17 36 184 79 304 77 218 151 358 285
539 30 41 63 87 72 101 12 19 28 28 61 32 102 14 227 124 313 274 63 111 235
208 559 313 72 23 166 55 210 71 97 34 90 33 129 9z m744 -34 c158 -41 307
-94 423 -151 125 -62 199 -110 199 -129 0 -8 9 -33 20 -57 26 -57 27 -109 2
-109 -20 0 -193 75 -327 142 -49 25 -124 57 -165 71 -81 28 -265 72 -345 82
-98 12 -95 10 -95 63 0 41 5 54 35 86 35 39 35 39 95 33 33 -4 104 -18 158
-31z m-1955 8 c93 -32 173 -163 165 -269 -5 -60 -42 -138 -81 -171 -16 -13
-53 -31 -84 -40 -118 -34 -226 3 -287 99 -50 78 -59 115 -47 183 30 160 181
250 334 198z m3051 -16 c49 -15 124 -86 157 -149 32 -64 31 -152 -5 -213 -50
-86 -122 -126 -226 -126 -125 0 -252 128 -253 255 -1 91 62 187 148 226 46 22
120 24 179 7z m-1527 -60 c4 -7 10 -72 13 -143 4 -116 8 -134 28 -159 31 -40
30 -91 -3 -112 l-25 -16 0 -189 0 -189 -54 0 c-30 0 -57 4 -61 9 -3 5 -8 87
-12 182 -6 164 -7 173 -30 192 -30 27 -30 71 2 122 22 36 24 51 25 146 0 59 3
121 6 138 6 30 9 31 55 31 27 0 51 -5 56 -12z m-1797 -528 l42 -21 -36 -42
c-59 -70 -180 -256 -239 -367 -56 -107 -108 -253 -148 -415 -33 -139 -28 -131
-102 -137 -45 -4 -75 -12 -97 -28 l-31 -22 5 24 c3 12 8 46 11 73 18 131 82
329 174 532 62 138 135 258 229 378 30 39 58 81 63 94 l9 23 40 -36 c21 -19
58 -45 80 -56z m3601 48 c7 -13 38 -57 70 -98 109 -143 227 -359 282 -520 50
-147 99 -326 104 -382 l6 -57 -40 20 c-22 11 -68 25 -103 33 l-63 12 -22 111
c-51 250 -148 470 -295 668 -114 153 -115 157 -63 170 27 6 85 43 91 57 7 15
21 8 33 -14z m-808 -32 c63 -51 90 -112 91 -203 1 -64 -2 -76 -29 -115 -67
-96 -195 -114 -307 -42 -101 65 -115 255 -26 341 50 49 93 64 165 59 53 -3 68
-9 106 -40z m275 -16 c43 -21 75 -30 110 -30 31 0 52 -5 55 -13 3 -7 34 -51
70 -99 170 -222 287 -470 363 -767 l29 -113 -24 -17 c-36 -24 -106 -93 -119
-116 -6 -11 -13 -17 -16 -14 -3 3 -19 73 -35 155 -37 189 -51 238 -107 371
-69 167 -139 284 -254 427 -138 171 -148 189 -141 239 2 10 3 10 69 -23z
m-2041 -40 c193 -22 431 -132 589 -273 27 -24 77 -62 111 -85 34 -23 108 -86
165 -140 57 -53 155 -143 220 -199 64 -57 126 -115 137 -129 12 -15 47 -55 79
-88 31 -34 96 -109 144 -167 48 -59 99 -114 113 -123 24 -16 25 -16 25 5 0 12
26 61 59 108 154 225 219 410 209 589 l-5 82 38 26 c21 14 45 37 54 50 9 14
20 22 24 19 9 -5 36 -113 45 -181 8 -60 -20 -223 -52 -307 -83 -214 -262 -461
-321 -442 -16 5 -17 1 -6 -52 10 -51 14 -58 37 -61 19 -2 41 -23 82 -77 180
-239 246 -413 246 -646 0 -163 -26 -243 -114 -351 -127 -156 -345 -205 -600
-133 -153 43 -373 171 -489 286 -37 37 -81 72 -97 77 -28 10 -31 9 -45 -22
-20 -43 -94 -112 -178 -169 -87 -59 -232 -131 -250 -124 -14 5 -32 111 -22
127 3 5 33 23 67 40 34 17 82 45 107 63 81 54 221 160 221 166 0 13 -20 30
-115 101 -139 104 -321 290 -445 454 -58 77 -134 173 -170 215 -234 270 -361
478 -421 686 -32 113 -32 265 1 350 79 204 233 316 460 334 8 0 52 -3 97 -9z
m1313 -98 c0 -69 -10 -92 -40 -92 -26 0 -196 -86 -289 -147 -104 -67 -135 -72
-167 -25 -13 18 -21 39 -18 46 6 14 92 80 174 132 91 58 293 151 333 154 4 0
7 -31 7 -68z m-2633 -1008 c21 -17 53 -55 71 -84 27 -47 32 -63 32 -120 -1
-141 -101 -250 -229 -250 -47 0 -123 43 -169 95 -139 158 -17 403 195 392 52
-2 69 -8 100 -33z m4251 11 c46 -20 117 -88 143 -137 30 -59 26 -143 -10 -200
-34 -54 -82 -92 -140 -113 -106 -37 -198 2 -270 113 -27 43 -31 58 -31 118 0
60 4 77 29 116 64 101 180 144 279 103z m-463 -221 l0 -69 -320 4 c-225 2
-324 7 -332 15 -7 6 -14 34 -15 61 l-3 50 325 5 c179 3 330 5 335 4 6 0 10
-31 10 -70z m-2838 5 c-3 -33 -8 -63 -11 -66 -7 -7 -97 -8 -401 -5 l-261 2 -2
47 c-4 90 -34 83 345 83 l336 0 -6 -61z m168 -92 c14 -24 25 -51 25 -61 0 -9
-26 -60 -58 -114 -79 -130 -106 -186 -138 -284 -23 -71 -27 -103 -30 -223 l-2
-140 -34 -30 c-18 -16 -39 -43 -46 -58 -48 -111 -93 178 -58 374 18 99 71 231
153 377 57 103 133 202 155 202 4 0 19 -20 33 -43z m2743 -151 c23 -29 57 -64
76 -76 45 -27 46 -44 7 -205 -63 -257 -166 -468 -338 -689 -29 -37 -53 -74
-53 -82 0 -19 -27 -30 -89 -37 -101 -12 -207 -101 -277 -234 -49 -93 -87 -123
-269 -213 -175 -86 -466 -181 -506 -165 -8 3 -27 26 -44 51 -16 25 -55 64 -85
87 l-55 42 30 6 c17 4 60 7 96 8 178 3 443 86 566 177 182 136 438 355 523
449 174 192 312 518 360 848 7 48 14 87 15 87 2 0 21 -24 43 -54z m-3616 -91
c48 -209 108 -386 172 -513 71 -139 202 -300 322 -397 28 -21 72 -68 100 -103
75 -97 146 -148 254 -181 31 -10 78 -32 104 -50 139 -96 392 -171 577 -171 51
0 79 -7 79 -20 0 -5 -24 -22 -54 -38 -29 -17 -68 -50 -86 -74 -19 -24 -37 -47
-41 -51 -16 -19 -284 54 -423 115 -219 95 -304 156 -381 273 -82 123 -182 198
-285 212 -51 8 -57 12 -108 73 -102 125 -219 312 -275 440 -79 181 -137 367
-137 439 0 10 16 24 39 34 40 18 75 58 101 112 11 26 14 27 17 10 2 -11 13
-60 25 -110z m4113 -52 c-28 -164 -119 -442 -190 -584 -74 -147 -166 -301
-248 -413 l-50 -68 -35 41 c-19 23 -52 51 -73 62 -41 21 -48 33 -24 42 26 11
172 219 228 326 75 144 124 286 173 502 l17 76 70 7 c45 4 79 13 96 26 37 28
43 25 36 -17z m-4558 5 l72 -11 31 -131 c33 -141 32 -136 86 -276 44 -117 91
-212 144 -290 50 -76 178 -230 190 -230 22 0 7 -17 -38 -44 -26 -16 -61 -43
-79 -59 l-31 -29 -77 102 c-126 171 -232 362 -299 541 -48 131 -96 310 -103
388 -6 61 -5 64 13 57 10 -5 51 -13 91 -18z m1429 -568 c56 -28 130 -108 143
-156 32 -116 -6 -199 -114 -250 -61 -29 -98 -30 -168 -4 -59 22 -94 54 -126
115 -24 45 -25 64 -10 135 12 58 44 100 103 137 74 47 111 52 172 23z m869
-197 c10 -76 10 -572 -1 -582 -5 -5 -36 -11 -69 -13 l-60 -3 1 140 c1 77 2
222 3 323 l1 182 59 0 59 0 7 -47z m-1528 -328 c39 -12 62 -27 95 -64 52 -57
68 -104 68 -194 0 -90 -38 -147 -130 -194 -83 -42 -157 -45 -228 -9 -60 31
-85 57 -118 130 -22 49 -26 68 -21 117 9 105 66 174 172 211 62 22 97 22 162
3z m3070 -2 c52 -29 125 -104 147 -153 29 -64 27 -153 -4 -208 -56 -100 -228
-154 -329 -103 -42 22 -101 83 -127 133 -21 38 -23 125 -5 179 14 42 104 133
153 154 46 20 127 19 165 -2z m-457 -363 c0 -6 21 -43 47 -82 55 -83 62 -71
-87 -147 -198 -102 -387 -171 -590 -214 -206 -45 -196 -45 -161 -1 10 13 22
44 25 68 11 68 30 86 122 106 239 54 490 159 594 249 37 32 50 37 50 21z
m-2195 -57 c129 -76 327 -150 514 -191 76 -17 127 -33 132 -42 4 -8 14 -42 22
-75 8 -33 18 -68 22 -79 8 -17 5 -18 -41 -11 -154 22 -393 94 -569 170 -137
60 -262 122 -270 134 -3 6 10 27 30 46 19 20 35 41 35 47 0 6 7 19 16 29 18
21 33 17 109 -28z m1133 8 c46 -24 119 -100 138 -146 29 -71 15 -149 -37 -209
-87 -98 -185 -123 -285 -72 -94 47 -162 151 -150 228 13 81 81 172 149 202 48
21 141 20 185 -3z"/>
<path d="M1738 3709 c-128 -18 -207 -81 -274 -213 -31 -63 -34 -76 -34 -158 0
-111 25 -166 130 -283 15 -16 31 -43 34 -59 4 -16 19 -50 34 -75 39 -67 196
-277 256 -342 28 -30 104 -124 170 -207 126 -161 240 -282 424 -449 81 -74
119 -103 138 -103 18 0 68 37 181 138 85 75 162 142 170 147 9 6 91 100 183
210 92 111 175 207 184 214 24 20 20 56 -8 75 -14 8 -71 71 -128 138 -155 185
-296 320 -531 511 -40 32 -104 91 -144 132 -77 79 -240 194 -347 245 -162 77
-292 101 -438 79z m96 -180 c41 -32 77 -102 83 -162 10 -99 -60 -194 -152
-204 -61 -7 -109 12 -150 59 -50 59 -69 115 -56 164 15 55 62 108 123 138 63
32 116 33 152 5z m705 -205 c12 -15 21 -34 21 -44 0 -17 -66 -83 -242 -243
-80 -72 -193 -203 -328 -379 -12 -16 -27 -28 -34 -28 -7 0 -27 18 -45 41 -24
29 -31 46 -27 64 3 13 41 70 83 127 144 194 466 488 535 488 9 0 26 -12 37
-26z m196 -385 c47 -13 135 -69 182 -117 18 -18 48 -61 66 -95 30 -59 32 -67
32 -172 0 -103 -2 -114 -31 -175 -118 -244 -398 -320 -593 -161 -72 58 -85 73
-121 146 -63 124 -62 251 1 377 49 96 124 159 234 194 50 16 177 17 230 3z"/>
<path d="M2530 2792 c-124 -59 -183 -179 -147 -302 33 -112 168 -221 254 -205
96 18 170 75 211 164 57 123 -8 284 -135 338 -34 13 -157 17 -183 5z"/>
<path d="M3438 2457 c-8 -7 -24 -29 -36 -50 -49 -87 -264 -336 -381 -442 -88
-80 -208 -169 -248 -185 -18 -7 -41 -10 -52 -7 -17 4 -18 2 -5 -22 7 -14 15
-34 18 -44 3 -9 60 -53 126 -96 238 -156 376 -205 555 -199 112 3 179 27 248
87 156 138 121 482 -79 769 -57 81 -74 115 -74 145 0 38 -46 65 -72 44z"/>
</g>
</svg>
