<?xml version="1.0" standalone="no"?>
<!DOCTYPE svg PUBLIC "-//W3C//DTD SVG 20010904//EN"
 "http://www.w3.org/TR/2001/REC-SVG-20010904/DTD/svg10.dtd">
<svg version="1.0" xmlns="http://www.w3.org/2000/svg"
 width="479.000000pt" height="445.000000pt" viewBox="0 0 479.000000 445.000000"
 preserveAspectRatio="xMidYMid meet">

<g transform="translate(0.000000,445.000000) scale(0.100000,-0.100000)"
fill="#34d399" stroke="none">
<path d="M0 2225 l0 -2225 2395 0 2395 0 0 2225 0 2225 -2395 0 -2395 0 0
-2225z m2845 1996 c493 -122 843 -310 1151 -616 332 -329 546 -778 595 -1246
29 -274 -12 -696 -86 -897 -3 -8 -47 22 -122 84 -166 137 -157 127 -142 155
50 94 79 386 61 615 -22 268 -71 450 -191 696 -76 157 -127 234 -221 332 -224
235 -685 494 -1015 570 -290 66 -311 70 -420 69 -141 0 -420 -41 -570 -84
-178 -51 -273 -96 -520 -242 -189 -112 -205 -123 -292 -189 -204 -157 -375
-437 -476 -778 -40 -136 -60 -300 -61 -500 -1 -209 9 -289 51 -423 13 -43 23
-88 21 -100 -2 -15 -34 -43 -102 -89 -55 -37 -112 -79 -127 -94 -15 -14 -29
-22 -32 -17 -13 22 -58 212 -78 328 -31 186 -31 505 0 689 69 411 192 690 437
986 75 90 223 236 319 312 132 106 409 265 545 313 164 57 339 108 474 136 80
16 129 18 401 15 281 -2 318 -5 400 -25z m-369 -380 c147 -90 108 -311 -54
-311 -88 0 -172 94 -159 177 13 75 91 151 157 153 14 0 39 -9 56 -19z m-643
-406 c136 -28 280 -112 418 -243 l83 -79 -18 -27 c-9 -15 -57 -69 -104 -119
-48 -51 -102 -111 -120 -135 -36 -45 -52 -47 -52 -4 0 20 -20 46 -83 107 -89
87 -136 115 -237 141 -200 51 -404 -46 -493 -233 -30 -63 -32 -76 -31 -168 0
-93 2 -104 33 -165 42 -80 130 -168 208 -206 52 -26 68 -29 158 -29 84 0 109
4 155 25 127 56 204 120 359 299 66 75 145 161 176 191 31 30 92 98 135 150
113 138 304 328 385 383 142 96 296 135 485 124 173 -11 310 -72 442 -195 132
-124 218 -267 254 -419 20 -83 14 -286 -11 -378 -56 -210 -208 -393 -403 -486
-91 -44 -151 -58 -269 -66 -122 -7 -226 8 -335 48 -83 30 -97 37 -175 87 -73
46 -253 212 -253 234 0 9 93 115 216 246 l40 44 90 -89 c149 -147 235 -192
364 -193 130 0 221 40 307 134 104 114 136 274 83 416 -19 51 -38 79 -89 131
-86 86 -154 118 -264 126 -116 8 -181 -8 -269 -67 -98 -65 -166 -132 -359
-350 -325 -367 -505 -553 -612 -629 -263 -186 -601 -187 -879 -1 -178 119
-286 286 -322 499 -21 122 -20 152 5 269 68 321 332 588 629 637 96 16 250 12
353 -10z m485 -1748 c29 -31 42 -76 33 -118 -5 -25 -20 -41 -66 -73 -33 -23
-121 -100 -195 -171 -213 -206 -252 -230 -393 -241 -45 -4 -88 -11 -94 -17 -7
-5 -13 -25 -13 -43 l0 -34 58 0 c172 1 274 57 504 278 124 119 189 172 211
172 10 0 17 -53 12 -84 -20 -102 -351 -434 -514 -513 l-56 -28 -395 0 c-311 0
-406 -3 -445 -14 -75 -21 -173 -67 -229 -108 -48 -34 -51 -35 -64 -17 -7 10
-53 73 -102 139 -49 66 -115 167 -146 224 -31 58 -65 117 -76 132 -19 26 -18
49 2 49 14 0 113 65 172 113 29 23 98 76 153 117 55 40 125 92 155 115 70 54
148 93 197 100 21 3 183 2 361 -2 l324 -8 34 -37 c38 -42 44 -80 19 -128 -30
-59 -54 -63 -315 -59 l-235 4 -3 -26 c-7 -59 96 -128 224 -150 36 -6 114 -9
173 -7 165 7 195 25 426 248 156 151 225 210 246 210 8 0 25 -11 37 -23z m343
5 c14 -9 104 -96 200 -192 112 -113 195 -187 233 -210 57 -33 63 -34 182 -38
184 -6 279 15 372 85 40 30 45 77 10 89 -13 4 -124 8 -247 8 l-223 1 -34 39
c-47 55 -47 102 0 144 43 37 87 42 466 45 l265 2 70 -38 c39 -20 108 -71 155
-113 114 -102 226 -189 338 -263 50 -34 92 -66 92 -71 0 -9 -98 -153 -142
-210 -72 -92 -149 -209 -173 -261 -24 -55 -28 -59 -43 -45 -24 21 -129 72
-212 102 -92 33 -272 46 -610 42 l-255 -3 -45 27 c-70 42 -226 169 -326 267
-153 150 -215 249 -198 316 3 14 12 25 20 25 17 0 147 -112 207 -178 67 -73
239 -222 281 -244 51 -26 148 -41 219 -33 55 7 57 8 57 36 0 36 -17 44 -120
53 -41 4 -88 15 -105 23 -77 40 -172 119 -316 264 -86 86 -165 160 -175 163
-50 16 -79 143 -40 172 27 19 66 18 97 -4z m-173 -856 c99 -52 141 -181 87
-272 -53 -90 -135 -111 -214 -53 -75 54 -100 151 -62 234 39 85 123 125 189
91z m-1035 -239 c46 -37 134 -91 212 -130 72 -35 351 -113 480 -132 139 -22
392 -21 552 0 255 35 572 149 728 264 l50 36 150 -3 c178 -5 267 -13 272 -27
1 -5 -25 -30 -59 -55 -34 -25 -86 -66 -116 -92 -55 -48 -249 -164 -364 -217
-81 -38 -322 -117 -415 -136 -135 -29 -283 -39 -583 -39 -277 -1 -316 1 -430
22 -69 13 -147 30 -175 39 -165 52 -447 187 -583 278 -69 47 -205 173 -197
184 10 18 327 53 403 46 18 -2 51 -19 75 -38z"/>
<path d="M2370 3738 c-11 -12 -20 -35 -20 -50 0 -34 40 -78 70 -78 30 0 80 53
80 84 0 60 -87 90 -130 44z"/>
<path d="M2417 743 c-9 -2 -24 -17 -32 -33 -29 -57 -15 -102 38 -119 42 -14
64 -6 82 30 39 74 -10 142 -88 122z"/>
</g>
</svg>
