<?xml version="1.0" standalone="no"?>
<!DOCTYPE svg PUBLIC "-//W3C//DTD SVG 20010904//EN"
 "http://www.w3.org/TR/2001/REC-SVG-20010904/DTD/svg10.dtd">
<svg version="1.0" xmlns="http://www.w3.org/2000/svg"
 width="481.000000pt" height="429.000000pt" viewBox="0 0 481.000000 429.000000"
 preserveAspectRatio="xMidYMid meet">

<g transform="translate(0.000000,429.000000) scale(0.100000,-0.100000)"
fill="#34d399" stroke="none">
<path d="M0 2145 l0 -2145 2405 0 2405 0 0 2145 0 2145 -2405 0 -2405 0 0
-2145z m2699 1704 c313 -26 671 -168 957 -380 30 -22 54 -44 54 -49 0 -9 -122
-100 -134 -100 -4 0 -37 20 -74 44 -209 136 -440 241 -629 285 -94 22 -294 41
-427 41 -461 0 -951 -225 -1263 -580 -191 -218 -318 -477 -391 -800 -23 -106
-25 -134 -25 -345 0 -212 2 -240 26 -354 77 -357 224 -622 480 -867 291 -279
608 -430 1007 -479 156 -19 241 -19 405 0 264 31 410 72 620 177 363 180 680
543 820 937 83 233 122 542 96 757 -14 112 -72 372 -95 429 l-16 38 47 51 c27
28 56 62 64 76 l17 25 26 -60 c153 -341 186 -775 90 -1170 -115 -475 -428
-903 -859 -1172 -153 -95 -367 -184 -573 -236 l-127 -32 -280 0 c-318 0 -382
9 -617 86 -375 124 -785 435 -1001 762 -222 334 -328 702 -313 1083 9 218 33
349 112 592 60 187 191 410 342 585 140 161 295 292 476 403 122 73 328 162
464 200 263 72 391 81 721 53z m1930 -170 c16 -45 14 -79 -6 -116 -17 -31
-191 -236 -391 -462 -52 -58 -108 -122 -125 -141 -17 -19 -63 -69 -102 -111
-265 -285 -413 -446 -480 -524 -43 -49 -117 -133 -165 -185 -48 -52 -117 -131
-155 -175 -88 -102 -142 -161 -334 -366 -86 -91 -201 -214 -256 -275 -159
-173 -327 -344 -340 -344 -7 0 -156 146 -331 324 -436 442 -514 524 -514 540
0 14 291 297 337 328 16 10 35 18 43 18 9 0 121 -106 250 -235 129 -129 235
-235 236 -235 2 0 53 51 116 113 288 287 876 840 1068 1006 36 31 101 88 145
127 44 38 118 102 165 141 47 39 139 117 205 173 103 87 501 384 560 418 37
21 62 14 74 -19z m-1881 -219 c148 -33 325 -96 443 -158 112 -60 190 -115 188
-135 0 -14 -140 -107 -159 -107 -7 0 -39 16 -71 35 -145 89 -325 156 -479 179
-117 18 -352 14 -466 -7 -83 -16 -243 -71 -325 -113 -140 -70 -323 -222 -433
-358 -196 -245 -299 -578 -283 -916 10 -202 56 -359 157 -542 72 -130 137
-214 251 -323 110 -106 194 -164 320 -225 403 -192 840 -182 1257 29 192 97
445 359 536 554 73 157 102 248 121 380 18 125 19 197 3 355 l-11 123 40 42
c22 23 53 63 68 90 15 26 28 47 30 47 1 0 10 -12 20 -26 54 -82 77 -476 41
-684 -80 -459 -383 -863 -801 -1070 -181 -89 -296 -126 -469 -151 -179 -24
-304 -24 -472 2 -389 59 -758 277 -990 584 -51 69 -146 226 -177 295 -79 175
-127 403 -127 602 0 306 88 598 257 853 81 121 291 335 402 409 194 129 462
232 666 256 117 14 358 4 463 -20z m-275 -569 c40 -111 48 -121 105 -122 56 0
140 -13 149 -22 10 -11 -37 -56 -100 -94 l-58 -35 6 -42 c4 -22 13 -63 21 -90
8 -28 10 -54 6 -58 -5 -5 -28 7 -53 25 -79 61 -96 66 -143 48 -23 -8 -63 -28
-90 -44 -27 -15 -50 -26 -53 -24 -2 3 2 44 9 92 l12 87 -24 20 c-14 10 -49 37
-77 59 -29 22 -53 46 -53 54 0 14 49 23 159 28 l53 2 24 65 c39 106 56 139 68
134 6 -2 24 -40 39 -83z"/>
</g>
</svg>
