<?xml version="1.0" standalone="no"?>
<!DOCTYPE svg PUBLIC "-//W3C//DTD SVG 20010904//EN"
 "http://www.w3.org/TR/2001/REC-SVG-20010904/DTD/svg10.dtd">
<svg version="1.0" xmlns="http://www.w3.org/2000/svg"
 width="398.000000pt" height="415.000000pt" viewBox="0 0 398.000000 415.000000"
 preserveAspectRatio="xMidYMid meet">

<g transform="translate(0.000000,415.000000) scale(0.100000,-0.100000)"
fill="#34d399" stroke="none">
<path d="M0 2075 l0 -2075 1990 0 1990 0 0 2075 0 2075 -1990 0 -1990 0 0
-2075z m2820 1478 c11 -11 4 -612 -9 -707 -13 -103 -65 -275 -108 -361 -104
-205 -273 -383 -444 -468 -97 -48 -168 -60 -300 -54 -120 5 -165 21 -285 100
-150 98 -318 333 -385 536 -23 73 -45 170 -61 281 -10 71 -14 662 -5 678 6 8
1589 3 1597 -5z m-1837 -33 l87 0 0 -89 0 -90 -54 -6 c-29 -4 -97 -5 -150 -4
l-96 4 0 -103 c0 -264 103 -465 352 -687 46 -41 59 -60 71 -105 9 -30 41 -93
72 -139 30 -46 54 -86 51 -88 -15 -15 -269 165 -384 272 -96 89 -186 208 -242
320 -82 163 -110 310 -110 579 l0 149 158 -6 c86 -4 196 -7 245 -7z m2441 0
l26 -10 0 -193 c0 -239 -17 -318 -109 -501 -81 -162 -144 -243 -292 -381 -67
-62 -326 -241 -336 -232 -2 3 13 29 34 59 42 56 123 211 123 234 0 7 28 41 61
76 139 143 224 267 276 403 39 102 51 158 56 267 l5 87 -137 3 -136 3 -3 70
c-5 123 -19 114 181 118 94 1 184 4 199 5 15 1 38 -2 52 -8z m175 -1285 c17
-8 38 -34 51 -59 21 -45 21 -51 22 -598 1 -605 -3 -658 -57 -772 -66 -139
-295 -327 -565 -461 -143 -72 -268 -152 -301 -193 -19 -24 -21 -25 -122 -18
-56 3 -176 7 -265 8 -122 1 -165 5 -169 14 -10 27 18 228 42 302 55 163 135
263 295 369 192 127 291 217 435 401 50 65 115 112 153 112 33 0 100 -66 108
-104 9 -49 -12 -109 -58 -168 -46 -58 -243 -281 -325 -368 -58 -60 -65 -88
-33 -120 19 -19 23 -19 49 -5 65 33 192 139 291 242 209 215 256 299 296 523
14 79 16 128 10 290 -4 107 -11 229 -16 270 -5 41 -9 121 -10 176 0 89 3 105
21 128 36 46 96 59 148 31z m-3076 -6 c13 -6 32 -25 43 -42 18 -30 19 -51 16
-382 -6 -578 12 -653 207 -882 83 -96 298 -294 359 -330 50 -29 83 -25 108 13
17 25 17 26 -37 82 -31 31 -86 92 -125 136 -38 43 -82 92 -97 110 -127 140
-179 221 -179 281 -1 49 22 84 74 111 58 30 98 11 166 -81 118 -162 268 -299
480 -439 161 -108 227 -192 278 -356 21 -67 53 -294 43 -304 -2 -3 -129 -6
-282 -7 l-278 -2 -43 36 c-24 20 -126 85 -227 146 -324 193 -483 319 -557 444
-40 66 -78 176 -91 260 -6 34 -11 301 -12 593 -3 600 -7 568 74 605 50 22 49
22 80 8z m2732 -183 c48 -63 71 -156 90 -364 9 -105 14 -204 11 -218 l-7 -27
-34 33 c-19 18 -37 47 -40 64 -19 95 -72 254 -122 364 -18 40 -33 81 -33 90 0
10 14 34 31 55 39 48 69 49 104 3z m-2396 -11 c38 -43 39 -68 7 -172 -13 -43
-34 -123 -45 -178 -35 -162 -39 -173 -75 -200 -60 -45 -60 -46 -53 173 6 202
23 307 61 380 23 45 63 44 105 -3z m2189 -191 c65 -78 156 -304 130 -320 -5
-3 -28 -3 -51 0 l-43 7 -67 129 c-71 137 -83 190 -49 209 30 18 50 12 80 -25z
m-1989 0 c27 -34 26 -50 -4 -116 -13 -29 -32 -83 -42 -120 l-17 -68 -48 0
c-40 0 -48 3 -48 19 0 28 56 245 71 272 24 47 58 52 88 13z m1073 -66 c9 -155
65 -264 163 -319 39 -22 73 -31 150 -39 55 -6 103 -15 108 -19 4 -4 2 -30 -4
-58 l-12 -51 -241 -3 c-133 -2 -362 -2 -511 1 l-270 5 0 60 c0 39 4 59 11 58
7 -1 40 2 74 8 177 28 276 147 295 352 l7 76 72 4 c39 1 90 4 112 5 l41 2 5
-82z m-994 -60 c7 -7 12 -21 12 -33 0 -22 -75 -185 -85 -185 -3 0 -17 10 -31
23 -24 23 -24 24 -9 66 15 43 80 141 94 141 4 0 12 -5 19 -12z m1824 -99 c37
-46 67 -89 67 -95 1 -12 -71 -64 -88 -64 -9 0 -43 73 -72 159 -19 55 -12 97
14 88 7 -2 42 -42 79 -88z m-312 -484 c0 -14 -22 -33 -73 -64 -152 -93 -114
-86 -467 -89 -402 -4 -465 2 -590 58 -105 47 -130 65 -130 91 0 10 8 19 18 22
9 2 293 3 629 3 606 -1 613 -1 613 -21z"/>
<path d="M1313 3403 c-4 -16 -8 -143 -7 -283 0 -264 2 -285 53 -476 45 -171
177 -358 341 -481 89 -67 229 -109 288 -86 21 8 13 14 -70 57 -129 67 -161 91
-258 192 -134 139 -164 185 -208 319 -36 109 -43 177 -49 475 -4 200 -9 297
-17 302 -6 4 -23 8 -38 8 -22 0 -29 -6 -35 -27z"/>
<path d="M1925 3262 c-71 -34 -115 -85 -115 -134 0 -46 -8 -54 -60 -63 -94
-15 -140 -62 -167 -169 -15 -64 -15 -69 6 -147 37 -141 115 -233 257 -305 69
-35 86 -39 163 -42 144 -5 261 50 359 171 92 113 136 248 113 345 -25 103 -71
141 -180 147 l-55 4 -12 50 c-15 67 -56 118 -118 147 -68 32 -117 30 -191 -4z
m149 -130 c39 -36 48 -69 35 -123 -8 -31 -9 -53 -3 -58 5 -5 34 -5 69 1 105
17 172 -29 168 -118 -2 -62 -43 -131 -121 -207 -118 -114 -189 -131 -302 -75
-83 42 -148 106 -188 187 -37 75 -39 102 -12 146 32 52 67 61 139 37 33 -11
62 -18 65 -15 3 3 2 33 -1 68 -7 77 8 126 49 160 34 29 67 28 102 -3z"/>
</g>
</svg>
